.\" Automatically generated by Pandoc 3.1.11.1
.\"
.TH "ks-oga" "1" "Oct 04, 2025" "2025-10-04" "Convert video/audio file to OGA (OGG Audio) Format"
.SH ks\-oga \- Convert video/audio file to OGA (OGG Audio) Format.
.SS Syntax:
.IP
.EX
$ ks\-oga </absolute/path/song.mp3> </path/prefix_name>
.EE
.SS Default configuration:
.IP \[bu] 2
The script \f[CR]ks\-oga\f[R] use by default the following
configuration:
.RS 2
.IP
.EX
\- Audio codec: libvorbis
\- Bitrate audio: 130k
\- Container: oga
.EE
.RE
.IP \[bu] 2
If you want to change the settings, you need to edit the
\f[CR]\[ti]/.ks\-tools/ks\-oga\f[R] file and change the following
variables:
.RS 2
.IP
.EX
acodec=\[dq]libvorbis\[dq]
b_acodec=\[dq]130k\[dq]
v_ext=\[dq]oga\[dq]
default_lang_audio=\[dq]spa\[dq]
.EE
.RE
.IP \[bu] 2
RECOMMENDED: You can use the ks\-conf tool to edit the configuration.
.SS Example of use:
.IP \[bu] 2
An example of use would be the following:
.RS 2
.IP
.EX
$ ks\-oga /data/video/Example.mkv /data/audio/Example
.EE
.RE
.IP \[bu] 2
Executing the command, the file will be analyzed and a wizard will be
shown to select the tracks, choose the settings and define the metadata:
.RS 2
.IP
.EX
* Information of Example.mkv:

+ Audio Tracks:
Stream #0:1(spa): Audio: ac3
Stream #0:2(eng): Audio: ac3

* (Default: 0:1) Type the number of audio track: 

* METADATA configuration:

* (Default: Example) Type name of title: My song
* (Default: Album\-Disc) Type name of album: My personal album
* (Default: 01) Type number of track: 2
* (Default: Artist) Type name of artist: asdo92
* (Default: 2021) Type the year: 2016
* (Default: Pop) Type the genre: Rap

* COMMANDS THAT WILL BE EXECUTED:

  # Convert the file \[aq]Example.mkv\[aq] to OGG Audio
  ffmpeg \-i \[dq]Example.mkv\[dq] \-map 0:1 \-c:a libvorbis \-b:a 130k 
  \-metadata title=\[dq]My song\[dq] \-metadata date=\[dq]2016\[dq] 
  \-metadata genre=\[dq]Rap\[dq] \-metadata album=\[dq]My personal album\[dq] 
  \-metadata artist=\[dq]asdo92\[dq] \-metadata track=\[dq]2\[dq] \[dq]Example.oga\[dq]

* (Default: y) Do you want run the conversion? (y/n): n
.EE
.RE
.SS Manual
.IP \[bu] 2
This tool is part of ks-tools
